<svg viewBox="99.55999999999989 55.96923076923076 848.8800000000001 607.2923076923078" fill="none" xmlns="http://www.w3.org/2000/svg" xmlns:xlink="http://www.w3.org/1999/xlink" overflow="visible" width="786.0000000000001px" height="562.3076923076924px"><rect id="Blush Background Color" fill="#ffffff" x="99.55999999999989" y="55.96923076923076" width="848.8800000000001" height="607.2923076923078"/><g id="Master/Scene/2 Characters"><g id="Background" transform="scale(1 1)"><g id="Background/Wireframe 2"><g id="Mobile3" clip-path="url(#clip0_410_561334ff9e96-037a-487c-a85d-e363a8799c7a)"><rect id="Container" x="723" y="91" width="147" height="280" rx="8" fill="#C7D1D9"/><circle id="Touch" cx="796" cy="339" r="15" fill="white"/><g id="Camera"><circle id="Lens" cx="783" cy="108" r="2" fill="white"/><rect id="Sensor" x="790" y="106" width="21" height="4" rx="2" fill="white"/></g><g id="Rows" clip-path="url(#clip1_410_561334ff9e96-037a-487c-a85d-e363a8799c7a)"><g id="Row" clip-path="url(#clip2_410_561334ff9e96-037a-487c-a85d-e363a8799c7a)"><rect id="Container_2" x="737" y="119" width="119" height="50.7647" rx="4" fill="white"/><g id="Text Stuff" clip-path="url(#clip3_410_561334ff9e96-037a-487c-a85d-e363a8799c7a)"><rect id="Label" x="746" y="134.228" width="61" height="7.614" rx="3" fill="#C7D1D9"/><rect id="Label_2" x="746" y="146.918" width="40.9452" height="7.614" rx="3" fill="#C7D1D9"/></g><g id="Check"><circle id="Background" cx="843.282" cy="144.38" r="7" fill="#C7D1D9"/><circle id="Indicator" cx="843.282" cy="144.38" r="3" fill="#F2F2F2"/></g></g><g id="Row_2" clip-path="url(#clip4_410_561334ff9e96-037a-487c-a85d-e363a8799c7a)"><rect id="Background_2" x="737" y="178" width="119" height="37.7059" rx="4" fill="white"/><g id="Text" clip-path="url(#clip5_410_561334ff9e96-037a-487c-a85d-e363a8799c7a)"><rect id="Name" x="776" y="189.314" width="61" height="5.65701" rx="2.82851" fill="#C7D1D9"/><rect id="Name_2" x="776" y="198.742" width="40.9452" height="5.65701" rx="2.82851" fill="#C7D1D9"/></g><circle id="Avatar" cx="758" cy="196.857" r="12" fill="#C5CFD6"/></g><g id="Row_3" clip-path="url(#clip6_410_561334ff9e96-037a-487c-a85d-e363a8799c7a)"><rect id="Container_3" x="737" y="224" width="119" height="37.7059" rx="4" fill="white"/><g id="Text Stuff_2" clip-path="url(#clip7_410_561334ff9e96-037a-487c-a85d-e363a8799c7a)"><rect id="Label_3" x="746" y="235.314" width="61" height="5.65701" rx="2.82851" fill="#C7D1D9"/><rect id="Label_4" x="746" y="244.742" width="40.9452" height="5.65701" rx="2.82851" fill="#C7D1D9"/></g><g id="Check_2"><circle id="Background_3" cx="843.282" cy="242.857" r="7" fill="#C7D1D9"/><circle id="Indicator_2" cx="843.282" cy="242.857" r="3" fill="#F2F2F2"/></g></g><g id="Row_4" clip-path="url(#clip8_410_561334ff9e96-037a-487c-a85d-e363a8799c7a)"><rect id="Background_4" x="737" y="270" width="119" height="37.7059" rx="4" fill="white"/><g id="Text_2" clip-path="url(#clip9_410_561334ff9e96-037a-487c-a85d-e363a8799c7a)"><rect id="Name_3" x="776" y="281.314" width="61" height="5.65701" rx="2.82851" fill="#C7D1D9"/><rect id="Name_4" x="776" y="290.742" width="40.9452" height="5.65701" rx="2.82851" fill="#C7D1D9"/></g><circle id="Avatar_2" cx="758" cy="288.857" r="12" fill="#C5CFD6"/></g></g></g><g id="Mobile3_2" clip-path="url(#clip10_410_561334ff9e96-037a-487c-a85d-e363a8799c7a)"><rect id="Container_4" x="219" y="114" width="159" height="302" rx="8" fill="#F2F2F2"/><circle id="Touch_2" cx="298" cy="382" r="15" fill="white"/><g id="Camera_2"><circle id="Lens_2" cx="285" cy="132" r="2" fill="white"/><rect id="Sensor_2" x="292" y="130" width="21" height="4" rx="2" fill="white"/></g><g id="Rows_2" clip-path="url(#clip11_410_561334ff9e96-037a-487c-a85d-e363a8799c7a)"><g id="Row_5" clip-path="url(#clip12_410_561334ff9e96-037a-487c-a85d-e363a8799c7a)"><rect id="Background_5" x="233" y="142" width="131" height="54" rx="4" fill="white"/><g id="Text_3" clip-path="url(#clip13_410_561334ff9e96-037a-487c-a85d-e363a8799c7a)"><rect id="Name_5" x="272" y="158.2" width="73" height="8.1" rx="3" fill="#C7D1D9"/><rect id="Name_6" x="272" y="171.7" width="49" height="8.1" rx="3" fill="#C7D1D9"/></g><circle id="Avatar_3" cx="254" cy="169" r="12" fill="#C5CFD6"/></g><g id="Row_6" clip-path="url(#clip14_410_561334ff9e96-037a-487c-a85d-e363a8799c7a)"><rect id="Background_6" x="233" y="204" width="131" height="42" rx="4" fill="white"/><g id="Text_4" clip-path="url(#clip15_410_561334ff9e96-037a-487c-a85d-e363a8799c7a)"><rect id="Name_7" x="272" y="216.6" width="73" height="6.3" rx="3" fill="#C7D1D9"/><rect id="Name_8" x="272" y="227.1" width="49" height="6.3" rx="3" fill="#C7D1D9"/></g><circle id="Avatar_4" cx="254" cy="225" r="12" fill="#C5CFD6"/></g><g id="Row_7" clip-path="url(#clip16_410_561334ff9e96-037a-487c-a85d-e363a8799c7a)"><rect id="Background_7" x="233" y="254" width="131" height="42" rx="4" fill="white"/><g id="Text_5" clip-path="url(#clip17_410_561334ff9e96-037a-487c-a85d-e363a8799c7a)"><rect id="Name_9" x="272" y="266.6" width="73" height="6.3" rx="3" fill="#C7D1D9"/><rect id="Name_10" x="272" y="277.1" width="49" height="6.3" rx="3" fill="#C7D1D9"/></g><circle id="Avatar_5" cx="254" cy="275" r="12" fill="#AFB9C5"/></g><g id="Row_8" clip-path="url(#clip18_410_561334ff9e96-037a-487c-a85d-e363a8799c7a)"><rect id="Background_8" x="233" y="304" width="131" height="42" rx="4" fill="white"/><g id="Text_6" clip-path="url(#clip19_410_561334ff9e96-037a-487c-a85d-e363a8799c7a)"><rect id="Name_11" x="272" y="316.6" width="73" height="6.3" rx="3" fill="#C7D1D9"/><rect id="Name_12" x="272" y="327.1" width="49" height="6.3" rx="3" fill="#C7D1D9"/></g><circle id="Avatar_6" cx="254" cy="325" r="12" fill="#C5CFD6"/></g></g></g><g id="Web" clip-path="url(#clip20_410_561334ff9e96-037a-487c-a85d-e363a8799c7a)"><rect id="Container_5" x="384" y="191" width="335" height="346" rx="8" fill="#F2F2F2"/><rect id="Background_9" x="633" y="234" width="70" height="81" rx="8" fill="white"/><g id="Profile Info"><circle id="Avatar_7" cx="668" cy="265" r="16" fill="#C7D1D9"/><rect id="Name_13" x="643" y="285" width="50" height="6" rx="3" fill="#C7D1D9"/><rect id="Name_14" x="651" y="295" width="34" height="6" rx="3" fill="#C7D1D9"/></g><path id="Header" d="M384 199C384 194.582 387.582 191 392 191H711C715.418 191 719 194.582 719 199V218H384V199Z" fill="#C5CFD6"/><g id="Buttons"><circle id="buttons" cx="397" cy="205" r="4" fill="#F2F2F2"/><circle id="buttons_2" cx="409" cy="205" r="4" fill="#F2F2F2"/><circle id="buttons_3" cx="421" cy="205" r="4" fill="#F2F2F2"/></g><g id="Components" clip-path="url(#clip21_410_561334ff9e96-037a-487c-a85d-e363a8799c7a)"><rect id="Background_10" x="633" y="323" width="70" height="194" rx="8" fill="white"/><g id="Rows_3" clip-path="url(#clip22_410_561334ff9e96-037a-487c-a85d-e363a8799c7a)"><rect id="Data" x="651" y="341" width="34" height="26" rx="4" fill="#C7D1D9"/><rect id="Data_2" x="651" y="375" width="34" height="25" rx="4" fill="#AFB9C5"/><rect id="Data_3" x="651" y="408" width="34" height="25" rx="4" fill="#C7D1D9"/><rect id="Data_4" x="651" y="474" width="34" height="25" rx="4" fill="#C7D1D9"/><rect id="Data_5" x="651" y="441" width="34" height="25" rx="4" fill="#C5CFD6"/></g></g><g id="Rows_4" clip-path="url(#clip23_410_561334ff9e96-037a-487c-a85d-e363a8799c7a)"><g id="Row_9" clip-path="url(#clip24_410_561334ff9e96-037a-487c-a85d-e363a8799c7a)"><rect id="Container_6" x="400" y="235" width="225" height="47" rx="4" fill="white"/><g id="Text Stuff_3" clip-path="url(#clip25_410_561334ff9e96-037a-487c-a85d-e363a8799c7a)"><rect id="Label_5" x="409" y="249.1" width="167" height="7.05" rx="3" fill="#C7D1D9"/><rect id="Label_6" x="409" y="260.85" width="112.096" height="7.05" rx="3" fill="#C7D1D9"/></g><g id="Check_3"><circle id="Background_11" cx="600.954" cy="258.5" r="7" fill="#C7D1D9"/><circle id="Indicator_3" cx="600.954" cy="258.5" r="3" fill="#F2F2F2"/></g></g><g id="Row_10" clip-path="url(#clip26_410_561334ff9e96-037a-487c-a85d-e363a8799c7a)"><rect id="Container_7" x="400" y="290" width="225" height="39" rx="4" fill="white"/><g id="Text Stuff_4" clip-path="url(#clip27_410_561334ff9e96-037a-487c-a85d-e363a8799c7a)"><rect id="Label_7" x="409" y="301.7" width="167" height="5.85" rx="2.925" fill="#C7D1D9"/><rect id="Label_8" x="409" y="311.45" width="112.096" height="5.85" rx="2.925" fill="#C7D1D9"/></g><g id="Check_4"><circle id="Background_12" cx="600.954" cy="309.5" r="7" fill="#C7D1D9"/><circle id="Indicator_4" cx="600.954" cy="309.5" r="3" fill="#F2F2F2"/></g></g><g id="Row_11" clip-path="url(#clip28_410_561334ff9e96-037a-487c-a85d-e363a8799c7a)"><rect id="Container_8" x="400" y="337" width="225" height="39" rx="4" fill="white"/><g id="Text Stuff_5" clip-path="url(#clip29_410_561334ff9e96-037a-487c-a85d-e363a8799c7a)"><rect id="Label_9" x="409" y="348.7" width="167" height="5.85" rx="2.925" fill="#C7D1D9"/><rect id="Label_10" x="409" y="358.45" width="112.096" height="5.85" rx="2.925" fill="#C7D1D9"/></g><g id="Check_5"><circle id="Background_13" cx="600.954" cy="356.5" r="7" fill="#C7D1D9"/><circle id="Indicator_5" cx="600.954" cy="356.5" r="3" fill="#AFB9C5"/></g></g><g id="Row_12" clip-path="url(#clip30_410_561334ff9e96-037a-487c-a85d-e363a8799c7a)"><rect id="Container_9" x="400" y="478" width="225" height="39" rx="4" fill="white"/><g id="Text Stuff_6" clip-path="url(#clip31_410_561334ff9e96-037a-487c-a85d-e363a8799c7a)"><rect id="Label_11" x="409" y="489.7" width="167" height="5.85" rx="2.925" fill="#C7D1D9"/><rect id="Label_12" x="409" y="499.45" width="112.096" height="5.85" rx="2.925" fill="#C7D1D9"/></g><g id="Check_6"><circle id="Background_14" cx="600.954" cy="497.5" r="7" fill="#C7D1D9"/><circle id="Indicator_6" cx="600.954" cy="497.5" r="3" fill="#F2F2F2"/></g></g><g id="Row_13" clip-path="url(#clip32_410_561334ff9e96-037a-487c-a85d-e363a8799c7a)"><rect id="Container_10" x="400" y="431" width="225" height="39" rx="4" fill="white"/><g id="Text Stuff_7" clip-path="url(#clip33_410_561334ff9e96-037a-487c-a85d-e363a8799c7a)"><rect id="Label_13" x="409" y="442.7" width="167" height="5.85" rx="2.925" fill="#C7D1D9"/><rect id="Label_14" x="409" y="452.45" width="112.096" height="5.85" rx="2.925" fill="#C7D1D9"/></g><g id="Check_7"><circle id="Background_15" cx="600.954" cy="450.5" r="7" fill="#C7D1D9"/><circle id="Indicator_7" cx="600.954" cy="450.5" r="3" fill="#F2F2F2"/></g></g><g id="Row_14" clip-path="url(#clip34_410_561334ff9e96-037a-487c-a85d-e363a8799c7a)"><rect id="Container_11" x="400" y="384" width="225" height="39" rx="4" fill="white"/><g id="Text Stuff_8" clip-path="url(#clip35_410_561334ff9e96-037a-487c-a85d-e363a8799c7a)"><rect id="Label_15" x="409" y="395.7" width="167" height="5.85" rx="2.925" fill="#C7D1D9"/><rect id="Label_16" x="409" y="405.45" width="112.096" height="5.85" rx="2.925" fill="#C7D1D9"/></g><g id="Check_8"><circle id="Background_16" cx="600.954" cy="403.5" r="7" fill="#C7D1D9"/><circle id="Indicator_8" cx="600.954" cy="403.5" r="3" fill="#F2F2F2"/></g></g></g></g><g id="Graph"><rect id="Value" x="520" y="146" width="6" height="25" rx="3" fill="#C7D1D9"/><rect id="Value_2" x="534" y="130" width="6" height="41" rx="3" fill="#C7D1D9"/><rect id="Value_3" x="548" y="122" width="6" height="49" rx="3" fill="#C7D1D9"/><rect id="Value_4" x="562" y="130" width="6" height="41" rx="3" fill="#C7D1D9"/><rect id="Value_5" x="576" y="114" width="6" height="57" rx="3" fill="#C5CFD6"/></g><g id="Chart"><path id="Value_6" fill-rule="evenodd" clip-rule="evenodd" d="M838.766 504.179C836.845 506.219 834.123 507.5 831.095 507.5C825.278 507.5 820.562 502.799 820.562 497C820.562 491.201 825.278 486.5 831.095 486.5V467C814.546 467 801 480.503 801 497C801 513.497 814.546 527 831.095 527C839.788 527 847.645 523.334 853 517.502L838.766 504.179Z" fill="#F2F2F2"/><path id="Value_7" fill-rule="evenodd" clip-rule="evenodd" d="M831 467V486.5C836.799 486.5 841.5 491.201 841.5 497H861C861 480.503 847.497 467 831 467Z" fill="#AFB9C5"/><path id="Value_8" fill-rule="evenodd" clip-rule="evenodd" d="M841.097 497C841.097 500.407 839.492 503.435 837 505.391L849.262 521C856.399 515.412 861 506.749 861 497H841.097Z" fill="#C5CFD6"/></g><g id="Chart_2"><path id="Value_9" fill-rule="evenodd" clip-rule="evenodd" d="M170.051 259.504C168.573 261.068 166.479 262.05 164.15 262.05C159.675 262.05 156.048 258.446 156.048 254C156.048 249.554 159.675 245.95 164.15 245.95V231C151.42 231 141 241.352 141 254C141 266.648 151.42 277 164.15 277C170.837 277 176.88 274.189 181 269.718L170.051 259.504Z" fill="#F2F2F2"/><path id="Value_10" fill-rule="evenodd" clip-rule="evenodd" d="M164 231V245.95C168.446 245.95 172.05 249.554 172.05 254H187C187 241.352 176.648 231 164 231Z" fill="#AFB9C5"/><path id="Value_11" fill-rule="evenodd" clip-rule="evenodd" d="M172.073 254C172.073 256.555 170.869 258.827 169 260.293L178.196 272C183.55 267.809 187 261.312 187 254H172.073Z" fill="#C5CFD6"/></g><g id="Image"><path id="Fill 35" fill-rule="evenodd" clip-rule="evenodd" d="M866.007 240.986C866.003 240.996 865.999 241.006 865.993 241.018C865.999 241.008 866.007 240.968 866.007 240.986" fill="#C5CFD6"/><path id="Fill 37" fill-rule="evenodd" clip-rule="evenodd" d="M865.998 241.001C865.998 241.003 865.996 241.007 865.996 241.011C865.996 241.001 866.014 240.971 865.998 241.001" fill="#C5CFD6"/><path id="Fill 39" fill-rule="evenodd" clip-rule="evenodd" d="M866.067 240.832C866.053 240.872 866.035 240.91 866.019 240.95C866.027 240.93 866.035 240.914 866.043 240.894C865.835 241.414 865.967 241.076 866.067 240.832" fill="#C5CFD6"/><path id="Fill 41" fill-rule="evenodd" clip-rule="evenodd" d="M866.022 240.953C866.014 240.971 866.006 240.991 865.998 241.009C865.94 241.121 866.022 240.953 866.022 240.953" fill="#C5CFD6"/><path id="Fill 45" fill-rule="evenodd" clip-rule="evenodd" d="M865.999 241.002C865.999 241 865.999 241 866.001 240.998C865.999 241 865.999 241 865.999 241.002" fill="#C5CFD6"/><path id="Fill 47" fill-rule="evenodd" clip-rule="evenodd" d="M865.99 241.016C865.978 241.04 866.046 240.924 865.99 241.016Z" fill="#C5CFD6"/><path id="Fill 49" fill-rule="evenodd" clip-rule="evenodd" d="M865.998 241.002L866.002 240.998C866 241 866 241.002 865.998 241.002" fill="#C5CFD6"/><rect id="Photo Background" x="818" y="189" width="95" height="63" rx="4" fill="#C5CFD6"/><path id="Mountains" fill-rule="evenodd" clip-rule="evenodd" d="M854 207L826 252H882L854 207Z" fill="#AFB9C5"/><path id="Mountains_2" fill-rule="evenodd" clip-rule="evenodd" d="M881.5 219L857 252H906L881.5 219Z" fill="#AFB9C5"/><circle id="Sun" cx="892" cy="210" r="9" fill="white"/></g><g id="Image_2"><path id="Fill 35_2" fill-rule="evenodd" clip-rule="evenodd" d="M218.993 556.986C218.997 556.996 219.001 557.006 219.007 557.018C219.001 557.008 218.993 556.968 218.993 556.986" fill="#C5CFD6"/><path id="Fill 37_2" fill-rule="evenodd" clip-rule="evenodd" d="M219.002 557.001C219.002 557.003 219.004 557.007 219.004 557.011C219.004 557.001 218.986 556.971 219.002 557.001" fill="#C5CFD6"/><path id="Fill 39_2" fill-rule="evenodd" clip-rule="evenodd" d="M218.933 556.832C218.947 556.872 218.965 556.91 218.981 556.95C218.973 556.93 218.965 556.914 218.957 556.894C219.165 557.414 219.033 557.076 218.933 556.832" fill="#C5CFD6"/><path id="Fill 41_2" fill-rule="evenodd" clip-rule="evenodd" d="M218.978 556.953C218.986 556.971 218.994 556.991 219.002 557.009C219.06 557.121 218.978 556.953 218.978 556.953" fill="#C5CFD6"/><path id="Fill 45_2" fill-rule="evenodd" clip-rule="evenodd" d="M219.001 557.002C219.001 557 219.001 557 218.999 556.998C219.001 557 219.001 557 219.001 557.002" fill="#C5CFD6"/><path id="Fill 47_2" fill-rule="evenodd" clip-rule="evenodd" d="M219.01 557.016C219.022 557.04 218.954 556.924 219.01 557.016Z" fill="#C5CFD6"/><path id="Fill 49_2" fill-rule="evenodd" clip-rule="evenodd" d="M219.002 557.002L218.998 556.998C219 557 219 557.002 219.002 557.002" fill="#C5CFD6"/><rect id="Photo Background_2" width="142" height="94" rx="4" transform="matrix(-1 0 0 1 290 480)" fill="#C7D1D9"/><path id="Mountains_3" fill-rule="evenodd" clip-rule="evenodd" d="M237.274 507L278.329 574H196.219L237.274 507Z" fill="#AFB9C5"/><path id="Mountains_4" fill-rule="evenodd" clip-rule="evenodd" d="M194.944 524.947L231.239 574H158.649L194.944 524.947Z" fill="#C5CFD6"/><circle id="Sun_2" cx="13.5" cy="13.5" r="13.5" transform="matrix(-1 0 0 1 193 498)" fill="white"/></g></g><defs><clipPath id="clip0_410_561334ff9e96-037a-487c-a85d-e363a8799c7a"><rect width="147" height="280" fill="white" transform="translate(723 91)"/></clipPath><clipPath id="clip1_410_561334ff9e96-037a-487c-a85d-e363a8799c7a"><rect width="119" height="189" fill="white" transform="translate(737 119)"/></clipPath><clipPath id="clip2_410_561334ff9e96-037a-487c-a85d-e363a8799c7a"><rect width="119" height="51" fill="white" transform="translate(737 119)"/></clipPath><clipPath id="clip3_410_561334ff9e96-037a-487c-a85d-e363a8799c7a"><rect width="61" height="20.4" fill="white" transform="translate(746 134.228)"/></clipPath><clipPath id="clip4_410_561334ff9e96-037a-487c-a85d-e363a8799c7a"><rect width="119" height="38" fill="white" transform="translate(737 178)"/></clipPath><clipPath id="clip5_410_561334ff9e96-037a-487c-a85d-e363a8799c7a"><rect width="61" height="15.5897" fill="white" transform="translate(776 189.314)"/></clipPath><clipPath id="clip6_410_561334ff9e96-037a-487c-a85d-e363a8799c7a"><rect width="119" height="38" fill="white" transform="translate(737 224)"/></clipPath><clipPath id="clip7_410_561334ff9e96-037a-487c-a85d-e363a8799c7a"><rect width="61" height="15.5897" fill="white" transform="translate(746 235.314)"/></clipPath><clipPath id="clip8_410_561334ff9e96-037a-487c-a85d-e363a8799c7a"><rect width="119" height="38" fill="white" transform="translate(737 270)"/></clipPath><clipPath id="clip9_410_561334ff9e96-037a-487c-a85d-e363a8799c7a"><rect width="61" height="15.5897" fill="white" transform="translate(776 281.314)"/></clipPath><clipPath id="clip10_410_561334ff9e96-037a-487c-a85d-e363a8799c7a"><rect width="159" height="302" fill="white" transform="translate(219 114)"/></clipPath><clipPath id="clip11_410_561334ff9e96-037a-487c-a85d-e363a8799c7a"><rect width="131" height="204" fill="white" transform="translate(233 142)"/></clipPath><clipPath id="clip12_410_561334ff9e96-037a-487c-a85d-e363a8799c7a"><rect width="131" height="54" fill="white" transform="translate(233 142)"/></clipPath><clipPath id="clip13_410_561334ff9e96-037a-487c-a85d-e363a8799c7a"><rect width="73" height="21.6" fill="white" transform="translate(272 158.2)"/></clipPath><clipPath id="clip14_410_561334ff9e96-037a-487c-a85d-e363a8799c7a"><rect width="131" height="42" fill="white" transform="translate(233 204)"/></clipPath><clipPath id="clip15_410_561334ff9e96-037a-487c-a85d-e363a8799c7a"><rect width="73" height="16.8" fill="white" transform="translate(272 216.6)"/></clipPath><clipPath id="clip16_410_561334ff9e96-037a-487c-a85d-e363a8799c7a"><rect width="131" height="42" fill="white" transform="translate(233 254)"/></clipPath><clipPath id="clip17_410_561334ff9e96-037a-487c-a85d-e363a8799c7a"><rect width="73" height="16.8" fill="white" transform="translate(272 266.6)"/></clipPath><clipPath id="clip18_410_561334ff9e96-037a-487c-a85d-e363a8799c7a"><rect width="131" height="42" fill="white" transform="translate(233 304)"/></clipPath><clipPath id="clip19_410_561334ff9e96-037a-487c-a85d-e363a8799c7a"><rect width="73" height="16.8" fill="white" transform="translate(272 316.6)"/></clipPath><clipPath id="clip20_410_561334ff9e96-037a-487c-a85d-e363a8799c7a"><rect width="335" height="346" fill="white" transform="translate(384 191)"/></clipPath><clipPath id="clip21_410_561334ff9e96-037a-487c-a85d-e363a8799c7a"><rect width="70" height="194" fill="white" transform="translate(633 323)"/></clipPath><clipPath id="clip22_410_561334ff9e96-037a-487c-a85d-e363a8799c7a"><rect width="34" height="158" fill="white" transform="translate(651 341)"/></clipPath><clipPath id="clip23_410_561334ff9e96-037a-487c-a85d-e363a8799c7a"><rect width="225" height="282" fill="white" transform="translate(400 235)"/></clipPath><clipPath id="clip24_410_561334ff9e96-037a-487c-a85d-e363a8799c7a"><rect width="225" height="47" fill="white" transform="translate(400 235)"/></clipPath><clipPath id="clip25_410_561334ff9e96-037a-487c-a85d-e363a8799c7a"><rect width="167" height="18.8" fill="white" transform="translate(409 249.1)"/></clipPath><clipPath id="clip26_410_561334ff9e96-037a-487c-a85d-e363a8799c7a"><rect width="225" height="39" fill="white" transform="translate(400 290)"/></clipPath><clipPath id="clip27_410_561334ff9e96-037a-487c-a85d-e363a8799c7a"><rect width="167" height="15.6" fill="white" transform="translate(409 301.7)"/></clipPath><clipPath id="clip28_410_561334ff9e96-037a-487c-a85d-e363a8799c7a"><rect width="225" height="39" fill="white" transform="translate(400 337)"/></clipPath><clipPath id="clip29_410_561334ff9e96-037a-487c-a85d-e363a8799c7a"><rect width="167" height="15.6" fill="white" transform="translate(409 348.7)"/></clipPath><clipPath id="clip30_410_561334ff9e96-037a-487c-a85d-e363a8799c7a"><rect width="225" height="39" fill="white" transform="translate(400 478)"/></clipPath><clipPath id="clip31_410_561334ff9e96-037a-487c-a85d-e363a8799c7a"><rect width="167" height="15.6" fill="white" transform="translate(409 489.7)"/></clipPath><clipPath id="clip32_410_561334ff9e96-037a-487c-a85d-e363a8799c7a"><rect width="225" height="39" fill="white" transform="translate(400 431)"/></clipPath><clipPath id="clip33_410_561334ff9e96-037a-487c-a85d-e363a8799c7a"><rect width="167" height="15.6" fill="white" transform="translate(409 442.7)"/></clipPath><clipPath id="clip34_410_561334ff9e96-037a-487c-a85d-e363a8799c7a"><rect width="225" height="39" fill="white" transform="translate(400 384)"/></clipPath><clipPath id="clip35_410_561334ff9e96-037a-487c-a85d-e363a8799c7a"><rect width="167" height="15.6" fill="white" transform="translate(409 395.7)"/></clipPath></defs></g><g id="Master/Pose/Standing" transform="matrix(-1 0 0 1 802 214) scale(1 1)"><g id="Master/Pose/Standing"><g id="Head/Front" transform="translate(82 0) scale(1 1)"><g id="Head/Front/Wavy"><g id="Head"><path id="SKIN" fill-rule="evenodd" clip-rule="evenodd" d="M92.1433 40.1339C97.9382 50.9351 97.2496 78.333 89.7603 80.2635C86.7737 81.0333 80.4113 79.1476 73.9359 75.2446L78 104H54L62.2616 65.4893C57.6541 60.0807 54.5357 53.4525 55.0568 46.0255C56.5583 24.625 86.3485 29.3328 92.1433 40.1339Z" fill="#dcae92"/></g><path id="hair" fill-rule="evenodd" clip-rule="evenodd" d="M94.4091 44.9836C94.1714 43.5836 93.5904 42.0288 93.1216 40.7043C92.5172 38.9967 91.6025 37.4571 90.5959 36.0061C88.7009 33.2744 86.4276 30.8075 83.9176 28.7601C79.3328 25.0202 73.4966 22.8631 67.7574 23.5636C64.8597 23.9173 62.0468 25.0226 59.6525 26.8624C57.4894 28.5246 55.4087 30.9716 52.6077 31.1474C49.56 31.3385 46.7662 28.6485 44.322 26.9871C41.566 25.1141 38.6342 23.7493 35.4132 23.2188C30.0173 22.3304 24.9482 24.1534 21.2294 28.5805C17.2722 33.2916 14.3955 40.2003 16.9943 46.4425C17.4773 47.6028 18.0988 48.581 18.9907 49.3918C19.8086 50.1353 21.0579 50.9263 21.3895 52.1142C21.7418 53.3769 20.6895 55.006 20.2815 56.1454C19.6969 57.7778 19.2169 59.4913 19.3876 61.2656C19.6679 64.1795 21.4991 66.9612 23.4327 68.8765C25.4004 70.8254 27.8222 71.943 30.4089 72.4582C32.1361 72.8022 33.9013 72.992 35.6567 72.8628C36.5281 72.7988 37.2971 72.5567 38.1414 72.3642C38.9625 72.1769 39.4213 72.395 40.1179 72.8453C43.354 74.9373 46.8335 75.7467 50.5701 75.4356C53.7237 75.1729 57.3584 74.4087 59.931 72.248C62.788 69.8482 62.7311 66.5391 62.0588 63.0035C62.7711 63.3565 64.7416 63.5751 63.5641 62.1681C63.0976 61.6108 62.2163 61.384 61.6178 61.0563C60.9209 60.6747 60.2132 60.1814 59.6721 59.5589C57.4869 57.0454 59.6939 51.93 62.4404 51.0871C66.5209 49.8347 67.4345 55.6055 70.3474 57.0982C72.0222 57.9565 73.7742 56.7834 75.029 55.5855C76.7099 53.9809 77.8554 51.8551 78.8445 49.6918C79.6592 47.9103 80.4173 46.1038 81.2477 44.3311C81.6354 43.5033 82.9778 41.1632 82.3037 40.2272C85.2264 39.6444 88.4816 40.859 90.9987 42.4517C92.0391 43.1101 92.8322 43.8361 93.3872 44.9985C93.5061 45.2475 93.7649 45.9879 94.0899 46.0183C94.6949 46.0748 94.4688 45.3354 94.4091 44.9836" fill="#2c1b18"/></g></g><g id="Lower Body/Standing" transform="translate(0 187) scale(1 1)"><g id="Lower Body/Standing/Jogging"><path id="SKIN" fill-rule="evenodd" clip-rule="evenodd" d="M130 0L204.306 124.227L260.015 229.25H272.014L178.674 0L130 0Z" fill="#cccccc"/><g id="Right [shoe]"><path id="shoe" fill-rule="evenodd" clip-rule="evenodd" d="M255.45 223.284C254.378 222.813 253.104 223.29 252.705 224.391C251.977 226.398 251 229.409 251 231.106C251 233.811 251.901 239 251.901 239C255.039 239 308.303 239 308.303 239C308.303 239 310.502 231.732 305.765 231.152C301.028 230.573 297.895 230.106 297.895 230.106L271.68 218.419C271.165 218.189 270.563 218.43 270.348 218.951L268.663 223.039C268.663 223.039 264.278 225.085 261.537 225.085C259.868 225.085 257.246 224.074 255.45 223.284Z" fill="#E4E4E4"/></g><path id="Pant" fill-rule="evenodd" clip-rule="evenodd" d="M244.543 212.433L267.683 205.433C267.683 205.433 252.476 159.971 230.405 105.374C208.335 50.7778 183 0 183 0H117.644C117.644 0 145.811 64.2315 177.366 116.725C208.921 169.219 244.543 212.433 244.543 212.433Z" fill="#38383a"/><path id="SKIN" fill-rule="evenodd" clip-rule="evenodd" d="M125.117 0C118.104 43.6542 104.577 99.4275 103.301 101.149C102.45 102.296 71.8127 112.562 11.3899 131.947L13.9818 142.528C86.0359 132.132 124.002 124.066 127.881 118.331C133.699 109.728 162.749 41.7631 174 0H125.117Z" fill="#dcae92"/><path id="Pant" fill-rule="evenodd" clip-rule="evenodd" d="M32.6294 122.8L37.1948 139.842C91.087 144.569 124.108 141.153 136.258 129.596C148.407 118.039 162.254 74.84 177.799 0H115.478C105.629 61.2839 100.123 93.2121 98.96 95.7848C97.7966 98.3574 75.6864 107.363 32.6294 122.8Z" fill="#69696b"/><g id="Left [shoe]"><path id="shoe_2" fill-rule="evenodd" clip-rule="evenodd" d="M15.9311 130.074C16.2095 128.937 15.5182 127.765 14.3648 127.563C12.2611 127.195 9.12692 126.756 7.45574 127.05C4.7919 127.52 -0.162158 129.309 -0.162158 129.309C0.382733 132.399 9.63191 184.854 9.63191 184.854C9.63191 184.854 17.1715 185.757 16.9197 180.991C16.6679 176.226 16.5838 173.059 16.5838 173.059L23.5408 145.213C23.6774 144.667 23.3357 144.115 22.7854 143.994L18.4673 143.044C18.4673 143.044 15.691 139.081 15.215 136.381C14.9252 134.738 15.4647 131.98 15.9311 130.074Z" fill="#E4E4E4"/></g></g></g><g id="Upper Body" transform="translate(22 82) scale(1 1)"><g id="Upper Body/Long Sleeve"><path id="SKIN" fill-rule="evenodd" clip-rule="evenodd" d="M231.483 59.9252L192 65.3108L199.084 83L231.121 70.2987C244.93 71.6611 251.607 71.3331 251.153 69.3149C250.77 67.6131 249.302 67.0993 247.95 66.6261C246.897 66.2574 245.914 65.9134 245.569 65.0515C244.78 63.0832 249.269 59.0033 253.693 55.3152C258.117 51.6271 255.148 50.9484 253.281 51.0029C246.647 52.5579 239.381 55.532 231.483 59.9252ZM39.398 156.908C42.3285 150.963 67.9699 74.4497 67.9699 74.4497L89.8673 74.5319C89.8673 74.5319 53.8506 155.583 52.308 159.406C50.3041 164.372 53.708 171.587 56.0162 176.48C56.3733 177.237 56.7041 177.938 56.9847 178.567C53.782 180 52.2435 178.268 50.6216 176.442C48.7896 174.379 46.8512 172.197 42.288 174.319C40.525 175.14 38.8568 176.109 37.2269 177.057C31.5969 180.329 26.4249 183.336 19.3891 178.994C18.2737 178.306 17.0514 175.715 20.0047 173.69C27.3624 168.645 37.9654 159.815 39.398 156.908Z" fill="#cccccc"/><path id="Clothes Back" fill-rule="evenodd" clip-rule="evenodd" d="M127.949 5.00001L145.094 6.14217C149.317 44.3434 172.316 68.4728 223.811 60.304L230.652 109.499C182.523 115.719 140.313 96.4498 131.662 44.2785C129.423 30.7729 127.655 16.7178 127.949 5.00001Z" fill="#77d692"/><path id="Clothes" fill-rule="evenodd" clip-rule="evenodd" d="M42.4016 147C54.3053 83.664 79.4301 34.664 117.776 0H119.421H119.477L119.491 0.0159384L145.468 5.96528C145.468 37.1692 152.41 60.4845 159.084 82.9002C161.966 92.5803 164.798 102.093 167 112H96.8436C95.8554 123.351 95.2485 135.018 94.9322 147H42.4016Z" fill="#a8e5ba"/><path id="Shade" fill-rule="evenodd" clip-rule="evenodd" d="M96.8438 112C98.8558 88.8905 102.449 67.0899 108.388 46.5981C107.086 68.5123 106.725 95.6979 111.103 112H96.8438Z" fill="black" fill-opacity="0.1"/></g></g></g></g><g id="Master/Pose/Standing" transform="translate(246 214) scale(1 1)"><g id="Master/Pose/Standing"><g id="Head/Front" transform="translate(82 0) scale(1 1)"><g id="Head/Front/Short Beard"><g id="Head"><path id="SKIN" fill-rule="evenodd" clip-rule="evenodd" d="M73.9354 75.2443C80.411 79.1475 86.7736 81.0333 89.7603 80.2635C97.2496 78.333 97.9382 50.9351 92.1433 40.1339C86.3485 29.3328 56.5583 24.625 55.0568 46.0255C54.5356 53.4529 57.6544 60.0814 62.2623 65.4901L54 104H78L73.9354 75.2443Z" fill="#dcae92"/></g><path id="Hair" fill-rule="evenodd" clip-rule="evenodd" d="M71.7199 51.0426C71.4839 51.0144 71.2437 50.9999 71.0001 50.9999C67.6864 50.9999 65.0001 53.6862 65.0001 56.9999C65.0001 58.6821 65.6924 60.2026 66.8076 61.2921C65.4193 63.2517 63.8634 65.2988 62.0805 67.4111C55.3825 63.3926 49.4122 50.6289 55.9606 39.3282C57.7706 33.7921 62.8681 31.8351 67.7075 30.4621C71.6276 28.8223 75.697 28.6374 79.1322 29.6205C85.8661 30.198 91.8791 32.2514 93.5833 33.4708C93.5833 39.8461 92.348 41.7376 81.7969 41.5708C79.2043 42.94 77.2113 45.2978 75.1354 48.3888C75.1527 48.626 76.5501 67.5846 82.4259 67.5846C85.9827 67.5846 89.2152 66.2263 91.7912 65.1439C93.4976 64.4269 94.9159 63.8309 95.9497 63.8309C97.8409 63.8309 97.4187 66.1976 96.1651 67.9524C95.7677 68.5086 94.7795 69.0571 93.7132 69.6489C92.004 70.5976 90.094 71.6578 90.094 73.0399C90.094 74.3079 91.3641 74.3054 92.4692 74.3032C93.3203 74.3015 94.0735 74.3 94.0735 74.8791C94.0735 75.1563 94.0846 75.4642 94.0963 75.7907C94.1779 78.0577 94.2918 81.2209 90.9513 81.2209C87.0838 81.2209 75.9949 79.8115 74.0945 74.0714C72.4826 69.2025 71.8691 55.1856 71.7199 51.0426Z" fill="#b58143"/></g></g><g id="Lower Body/Standing" transform="translate(0 187) scale(1 1)"><g id="Lower Body/Standing/Sweatpants"><path id="SKIN" fill-rule="evenodd" clip-rule="evenodd" d="M128 0L164.631 126.227L181.86 221H199.153L181.891 0L128 0Z" fill="#dcae92"/><path id="Shadow" fill-rule="evenodd" clip-rule="evenodd" d="M128 0L164.631 126.227L181.86 221H199.153L181.891 0L128 0Z" fill="black" fill-opacity="0.1"/><path id="SKIN" fill-rule="evenodd" clip-rule="evenodd" d="M111.538 0C114.094 65.5742 113.086 101.34 112.514 107.298C111.942 113.256 108.694 153.156 86.5637 223H104.55C133.858 155.997 144.089 116.096 147.45 107.298C150.812 98.4996 160.739 62.7336 175.233 0H111.538Z" fill="#dcae92"/><path id="Pant" fill-rule="evenodd" clip-rule="evenodd" d="M127.214 0C136.742 43.435 153.222 112.768 176.653 208H201.946C203.814 110.254 195.867 45.9205 182.105 0L127.214 0Z" fill="#1e1e24"/><path id="Pant" fill-rule="evenodd" clip-rule="evenodd" d="M111.41 0C113.913 65.5742 107.426 130.177 87.3306 209.021H114.317C143.679 143.018 164.723 78.7336 179.106 0H111.41Z" fill="#34343b"/><g id="Left [shoe]"><path id="Shoe" fill-rule="evenodd" clip-rule="evenodd" d="M84 236L84.9149 221.249C84.9546 220.609 85.5774 220.171 86.2047 220.304C94.8719 222.146 106.826 218 106.826 218C118.857 226.522 136.201 230.433 142.308 231.604C143.49 231.831 144.248 233.023 143.92 234.18L142.553 239H106.826H85.9848L84 236Z" fill="#191847"/></g><g id="Right [shoe]"><path id="Shoe_2" fill-rule="evenodd" clip-rule="evenodd" d="M178 236L178.915 221.249C178.955 220.609 179.577 220.171 180.205 220.304C188.872 222.146 200.826 218 200.826 218C212.857 226.522 230.201 230.433 236.308 231.604C237.49 231.831 238.248 233.023 237.92 234.18L236.553 239H200.826H179.985L178 236Z" fill="#191847"/></g></g></g><g id="Upper Body" transform="translate(22 82) scale(1 1)"><g id="Upper Body/Hoodie"><path id="SKIN" fill-rule="evenodd" clip-rule="evenodd" d="M222.68 115.635L190.781 92.2115L183.73 109.642L215.318 122.741C224.251 133.235 229.246 137.61 230.304 135.865C231.195 134.394 230.499 133.017 229.857 131.749C229.357 130.76 228.89 129.838 229.233 128.989C230.018 127.049 236.019 127.254 241.705 127.691C247.392 128.128 245.735 125.598 244.364 124.349C238.559 120.874 231.331 117.97 222.68 115.635ZM55.398 156.908C58.3285 150.963 68.308 93.0199 68.308 93.0199L89.2054 93.1021C89.2054 93.1021 69.8506 155.583 68.308 159.406C66.3041 164.372 69.708 171.587 72.0162 176.48C72.3733 177.237 72.7041 177.938 72.9847 178.567C69.782 180 68.2435 178.268 66.6216 176.442C64.7896 174.379 62.8512 172.197 58.288 174.319C56.525 175.14 54.8568 176.109 53.2269 177.057C47.5969 180.329 42.4249 183.336 35.3891 178.994C34.2737 178.306 33.0514 175.715 36.0047 173.69C43.3624 168.645 53.9654 159.815 55.398 156.908Z" fill="#dcae92"/><path id="Coat Back" fill-rule="evenodd" clip-rule="evenodd" d="M127.695 5.33203L136.342 3.84886C168.425 31.5643 181.603 84.8089 220.929 113.015L211.464 124.748C143.24 116.3 126.33 51.3548 127.695 5.33203Z" fill="#22739d"/><path id="Shirt" fill-rule="evenodd" clip-rule="evenodd" d="M90 114C90 114 142.008 114 166.511 114C170.008 114 169.349 108.952 168.843 106.404C163.011 77.0038 140.241 45.3115 140.241 3.46073L118.172 0C99.9175 29.3584 93.6048 65.5046 90 114Z" fill="#C7D1D9"/><path id="Coat Front" fill-rule="evenodd" clip-rule="evenodd" d="M81.3968 135C77.9582 143.259 74.5862 150.465 71.4089 156H54.9999C53.2345 98.9186 74.8454 54.9964 92.9315 28.5129C88.9158 28.2259 85.2911 26.5455 82.9999 22.4112C74.9335 7.85608 77.8467 -0.157593 86.4671 -2.79173C91.2074 -4.24021 95.6656 -3.25154 101.002 -2.06804C105.369 -1.09961 110.325 -0.000719281 116.504 2.76336e-08C116.506 2.76336e-08 116.508 2.76336e-08 116.51 2.76336e-08C117.109 2.76336e-08 117.654 0.0401216 118.148 0.116866L125.472 0.53474C125.472 0.53474 155.205 101.305 141.872 135H81.3968Z" fill="#65a9d7"/><path id="Shade" fill-rule="evenodd" clip-rule="evenodd" d="M81.397 135C85.9087 124.164 90.5352 111.516 94.9874 98.4544C96.6448 112.839 99.4048 127.286 104 135H81.397Z" fill="black" fill-opacity="0.1"/></g></g></g></g></g></svg>