<svg viewBox="24.445945945945937 27.25 359.89864864864865 504.12499999999983" fill="none" xmlns="http://www.w3.org/2000/svg" xmlns:xlink="http://www.w3.org/1999/xlink" overflow="visible" width="359.89864864864865px" height="504.12499999999983px"><g id="Master/Composition/Graphs"><g id="Chart"><path id="Value" fill-rule="evenodd" clip-rule="evenodd" d="M88.6606 88.7131C86.1848 91.3311 82.6774 92.975 78.7765 92.975C71.281 92.975 65.2047 86.942 65.2047 79.5C65.2047 72.058 71.281 66.025 78.7765 66.025V41C57.4533 41 40 58.3288 40 79.5C40 100.671 57.4533 118 78.7765 118C89.9771 118 100.1 113.295 107 105.811L88.6606 88.7131Z" fill="#F2F2F2"/><path id="Value_2" fill-rule="evenodd" clip-rule="evenodd" d="M78 41V66.35C85.5387 66.35 91.65 72.4613 91.65 80H117C117 58.5539 99.4461 41 78 41Z" fill="#42A5FF"/><path id="Value_3" fill-rule="evenodd" clip-rule="evenodd" d="M91.2919 79C91.2919 83.4007 89.2194 87.3124 86 89.8381L101.838 110C111.057 102.782 117 91.5928 117 79H91.2919Z" fill="#C5CFD6"/></g><g id="Circles"><circle id="Oval 2 Copy 17" cx="359" cy="132" r="20" fill="#C1DEE2"/><circle id="Oval 2 Copy 6" cx="88.5" cy="346.5" r="13.5" fill="#89C5CC"/><circle id="Oval 2 Copy 14" cx="164.5" cy="131.5" r="13.5" fill="#56919C"/><circle id="Oval 2 Copy 10" cx="137.5" cy="326.5" r="13.5" fill="#56919C"/><circle id="Oval 2 Copy 11" cx="186.5" cy="230.5" r="18.5" fill="#C1DEE2"/><circle id="Oval 2 Copy 16" cx="325" cy="148" r="27" fill="#89C5CC"/><circle id="Oval 2 Copy 7" cx="61.5" cy="299.5" r="13.5" fill="#C1DEE2"/><circle id="Oval 2 Copy 7_2" cx="33.5" cy="359.5" r="9.5" fill="#C1DEE2"/><circle id="Oval 2 Copy 9" cx="138" cy="275" r="10" fill="#C1DEE2"/><circle id="Oval 2 Copy 12" cx="228" cy="246" r="17" fill="#C1DEE2"/><circle id="Oval 2 Copy 13" cx="235" cy="175" r="17" fill="#C1DEE2"/><circle id="Oval 2 Copy 8" cx="102" cy="248" r="17" fill="#89C5CC"/><circle id="Oval 2 Copy 15" cx="286" cy="203" r="20" fill="#89C5CC"/></g><g id="Head/Front" transform="translate(101.859 127.148) scale(1.1015625 1.1043955729557917)"><g id="Head/Front/Long"><path id="Hair Back" fill-rule="evenodd" clip-rule="evenodd" d="M72.5 27C60.6259 27 51 36.6259 51 48.5V69.5C51 80.5658 59.3599 89.679 70.1086 90.8685C70.1114 90.9197 70.1143 90.971 70.1173 91.0225H99.1173C103.701 86.5438 99.209 57.9923 95.762 45.2902C94.2125 34.9385 85.2833 27 74.5 27H72.5Z" fill="#2c1b18"/><g id="Head"><path id="SKIN" fill-rule="evenodd" clip-rule="evenodd" d="M73.9354 75.2443C80.411 79.1475 86.7736 81.0333 89.7603 80.2635C97.2496 78.333 97.9382 50.9351 92.1433 40.1339C86.3485 29.3328 56.5583 24.625 55.0568 46.0255C54.5356 53.4529 57.6544 60.0814 62.2623 65.4901L54 104H78L73.9354 75.2443Z" fill="#d4a181"/></g><path id="Hair Front" fill-rule="evenodd" clip-rule="evenodd" d="M51.8812 46.1504C52.578 45.4614 53.2522 44.7947 53.9211 44.1981L53.8889 43.4207C53.8889 43.4207 61.4214 28 73.0014 28C84.5711 28 88.23 33.3787 91.3403 37.9508L91.3487 37.9631C89.7218 43.5452 84.8187 45.8037 79.2736 48.3579C76.8866 49.4574 74.3806 50.6117 71.9657 52.1095C71.0199 51.341 69.8137 50.8804 68.5 50.8804C65.4624 50.8804 63 53.3428 63 56.3804C63 59.418 65.4624 61.8804 68.5 61.8804C68.5838 61.8804 68.6671 61.8785 68.75 61.8748C69.8557 73.7528 69.4127 87.3173 66.1173 90.5371H37.1173C36.2848 76.0731 40.0264 71.947 43.8498 67.7307C47.4474 63.7635 51.1173 59.7166 51.1173 46.9028C51.3754 46.6506 51.6298 46.3991 51.8812 46.1505L51.8812 46.1504Z" fill="#2c1b18"/></g></g><g id="Lower Body/Sitting" transform="translate(11.5312 333.67) scale(1.1015625 1.1043956549097804)"><g id="Lower Body/Sitting/Sweat Pants"><g id="Seat"><ellipse id="Ballsy Ball" cx="126" cy="100.5" rx="77" ry="73.5" fill="#C5CFD6"/></g><path id="SKIN" fill-rule="evenodd" clip-rule="evenodd" d="M245.711 96.5801C249.43 109.608 258.697 134.302 271.509 162.66L283.685 159.107C273.033 93.8526 264.168 50.6508 259.09 37.5018C255.735 28.8143 230.353 29.8322 233.273 47.3128C234.498 54.6433 239.343 74.2726 245.711 96.5801ZM195.667 50.3613C175.812 54.4749 134.644 69.0168 122.888 73.6636C115.5 76.5839 120.263 86.488 126.566 85.6215C127.633 85.4748 131.41 85.0523 137.044 84.422C155.142 82.3973 192.412 78.2278 220.679 74.1596C235.563 72.0174 227.556 44.138 212.102 47.0883C206.903 48.0808 201.373 49.1792 195.667 50.3613Z" fill="#d4a181"/><path id="Leg Back" fill-rule="evenodd" clip-rule="evenodd" d="M259.869 30.1378C257.839 23.5136 165.562 0 165.562 0H158V7.04672L221.587 39.4163C221.503 40.4607 221.554 41.5648 221.759 42.729C221.3 66.7257 231.571 84.6527 241.739 102.402C248.389 114.008 254.994 125.539 258.528 138.641L281.889 135.156C281.209 133.416 280.133 125.568 278.661 114.839C274.952 87.7851 268.729 42.4086 260 30.4032C259.97 30.3613 259.939 30.3197 259.907 30.2783C259.896 30.2314 259.883 30.1846 259.869 30.1378Z" fill="#2a0752"/><path id="Leg Front" fill-rule="evenodd" clip-rule="evenodd" d="M163.283 58.6405C157.465 57.4758 152.107 56.4364 147.523 55.6323C117.909 50.4381 109.274 34.5863 114.38 0H168.942C177.855 2.56032 224.174 21.9848 248.207 32.3163C264.113 39.1543 259.099 63.8045 250.091 70.2195C250.042 70.613 249.88 70.8804 249.591 71C215.44 85.1543 186.318 84.0982 167.617 83.4201C159.784 83.136 153.78 82.9183 150 83.9122L144.077 65.2284L163.283 58.6405Z" fill="#342a83"/><g id="Left [shoe]"><path id="shoe" fill-rule="evenodd" clip-rule="evenodd" d="M129.127 72.6947C129.081 71.5247 128.094 70.5893 126.93 70.7131C124.806 70.9388 121.672 71.3803 120.147 72.1242C117.716 73.3099 113.446 76.3949 113.446 76.3949C114.822 79.2152 138.171 127.088 138.171 127.088C138.171 127.088 145.668 125.878 144.112 121.367C142.557 116.855 141.603 113.835 141.603 113.835L140.615 85.1497C140.596 84.5867 140.115 84.1508 139.553 84.1861L135.14 84.4634C135.14 84.4634 131.379 81.4191 130.177 78.955C129.446 77.4549 129.204 74.6555 129.127 72.6947Z" fill="#E4E4E4"/></g><g id="Right [shoe]"><path id="shoe_2" fill-rule="evenodd" clip-rule="evenodd" d="M268.45 156.284C267.378 155.813 266.104 156.29 265.705 157.391C264.977 159.398 264 162.409 264 164.106C264 166.811 264.901 172 264.901 172C268.039 172 321.303 172 321.303 172C321.303 172 323.502 164.732 318.765 164.152C314.028 163.573 310.895 163.106 310.895 163.106L284.68 151.419C284.165 151.189 283.563 151.43 283.348 151.951L281.663 156.039C281.663 156.039 277.278 158.085 274.537 158.085C272.868 158.085 270.246 157.074 268.45 156.284Z" fill="#E4E4E4"/></g></g></g><g id="Upper Body" transform="translate(35.7656 217.709) scale(1.1015625 1.1043955757018717)"><g id="Upper Body/Hoodie"><path id="SKIN" fill-rule="evenodd" clip-rule="evenodd" d="M222.68 115.635L190.781 92.2115L183.73 109.642L215.318 122.741C224.251 133.235 229.246 137.61 230.304 135.865C231.195 134.394 230.499 133.017 229.857 131.749C229.357 130.76 228.89 129.838 229.233 128.989C230.018 127.049 236.019 127.254 241.705 127.691C247.392 128.128 245.735 125.598 244.364 124.349C238.559 120.874 231.331 117.97 222.68 115.635ZM55.398 156.908C58.3285 150.963 68.308 93.0199 68.308 93.0199L89.2054 93.1021C89.2054 93.1021 69.8506 155.583 68.308 159.406C66.3041 164.372 69.708 171.587 72.0162 176.48C72.3733 177.237 72.7041 177.938 72.9847 178.567C69.782 180 68.2435 178.268 66.6216 176.442C64.7896 174.379 62.8512 172.197 58.288 174.319C56.525 175.14 54.8568 176.109 53.2269 177.057C47.5969 180.329 42.4249 183.336 35.3891 178.994C34.2737 178.306 33.0514 175.715 36.0047 173.69C43.3624 168.645 53.9654 159.815 55.398 156.908Z" fill="#d4a181"/><path id="Coat Back" fill-rule="evenodd" clip-rule="evenodd" d="M127.695 5.33203L136.342 3.84886C168.425 31.5643 181.603 84.8089 220.929 113.015L211.464 124.748C143.24 116.3 126.33 51.3548 127.695 5.33203Z" fill="#e87613"/><path id="Shirt" fill-rule="evenodd" clip-rule="evenodd" d="M90 114C90 114 142.008 114 166.511 114C170.008 114 169.349 108.952 168.843 106.404C163.011 77.0038 140.241 45.3115 140.241 3.46073L118.172 0C99.9175 29.3584 93.6048 65.5046 90 114Z" fill="#C7D1D9"/><path id="Coat Front" fill-rule="evenodd" clip-rule="evenodd" d="M81.3968 135C77.9582 143.259 74.5862 150.465 71.4089 156H54.9999C53.2345 98.9186 74.8454 54.9964 92.9315 28.5129C88.9158 28.2259 85.2911 26.5455 82.9999 22.4112C74.9335 7.85608 77.8467 -0.157593 86.4671 -2.79173C91.2074 -4.24021 95.6656 -3.25154 101.002 -2.06804C105.369 -1.09961 110.325 -0.000719281 116.504 2.76336e-08C116.506 2.76336e-08 116.508 2.76336e-08 116.51 2.76336e-08C117.109 2.76336e-08 117.654 0.0401216 118.148 0.116866L125.472 0.53474C125.472 0.53474 155.205 101.305 141.872 135H81.3968Z" fill="#ffa434"/><path id="Shade" fill-rule="evenodd" clip-rule="evenodd" d="M81.397 135C85.9087 124.164 90.5352 111.516 94.9874 98.4544C96.6448 112.839 99.4048 127.286 104 135H81.397Z" fill="black" fill-opacity="0.1"/></g></g><g id="Bars"><rect id="Rectangle" x="260" y="33" width="110" height="16" rx="4" fill="#342a83"/><rect id="Rectangle" x="260" y="57" width="70" height="16" rx="4" fill="#C1DEE2"/><rect id="Rectangle_2" x="260" y="81" width="86" height="16" rx="4" fill="#C1DEE2"/></g><g id="Graph"><rect id="Value_4" x="24" y="458" width="6" height="25" rx="3" fill="#42A5FF"/><rect id="Value_5" x="38" y="442" width="6" height="41" rx="3" fill="#42A5FF"/><rect id="Value_6" x="52" y="434" width="6" height="49" rx="3" fill="#42A5FF"/><rect id="Value_7" x="66" y="442" width="6" height="41" rx="3" fill="#42A5FF"/><rect id="Value" x="80" y="426" width="6" height="57" rx="3" fill="#342a83"/></g><g id="Pie Chart"><path id="Value_8" fill-rule="evenodd" clip-rule="evenodd" d="M324 465.516C324 449.285 337.053 436 353 436V465.516L333.181 487C327.544 481.748 324 474.042 324 465.516Z" fill="#F2F2F2"/><path id="Value_9" fill-rule="evenodd" clip-rule="evenodd" d="M351.892 465H381C381 472.57 377.931 479.664 373.078 484.819C367.741 490.456 360.141 494 351.892 494C344.294 494 337.338 490.942 332 486.108L351.892 465Z" fill="#AFB9C5"/><path id="Value_10" fill-rule="evenodd" clip-rule="evenodd" d="M382 465C382 449.053 368.947 436 353 436V465H382ZM338.5 436L350.1 462.1L324 450.5C326.581 443.734 332.377 438.581 338.5 436Z" fill="#8991DC"/></g><g id="Circles_2"><circle id="Circle" cx="136.5" cy="350.5" r="14.5" fill="#89C5CC"/><circle id="Circle_2" cx="179" cy="267" r="7" fill="#C1DEE2"/><circle id="Circle_3" cx="267" cy="261" r="15" fill="#89C5CC"/></g></g></svg>